<?xml version="1.0" encoding="utf-8"?>
<!-- Generator: Adobe Illustrator 28.3.0, SVG Export Plug-In . SVG Version: 6.00 Build 0)  -->
<svg version="1.1" id="Layer_1" xmlns="http://www.w3.org/2000/svg" xmlns:xlink="http://www.w3.org/1999/xlink" x="0px" y="0px"
	 viewBox="0 0 1180 1096" style="enable-background:new 0 0 1180 1096;" xml:space="preserve">
<style type="text/css">
	.st0{fill:#FFFFFF;}
</style>
<path class="st0" d="M1180,1096H0V0c393.3,0,786.7,0,1180,0V1096z M755.7,547.8c0-2.5,0.2-4.3,0-6.1c-1.9-15.8-4-31.6-5.8-47.4
	c-0.3-2.5-0.3-4.8,4.1-3.8c6.4,1.4,13,2.3,19.6,2.2c17.2-0.3,34.5-0.1,51.6-2.1c13.9-1.6,27.8-5,41-9.7c16.4-5.9,32.2-13.6,48-21.2
	c8.9-4.3,16.5-10.8,22.7-18.6c4.9-6.2,4.4-12.9-2-17.7c-4.9-3.6-10.6-7.1-16.4-8.6c-12.7-3.2-25.6-6.3-38.5-7.1
	c-19.3-1.3-38.8-1.1-57.9,2.9c-19.9,4.2-39,10.7-57.3,19.6c-5.6,2.7-11.3,5.2-17.2,7.3c-2,0.7-4.6-0.1-6.9-0.2
	c0.7-1.9,0.9-4.1,2.1-5.5c5.4-6.4,11-12.6,16.8-18.7c11.9-12.6,23.6-25.5,32.5-40.5c5.9-9.9,11.7-19.8,17.1-29.9
	c8.1-15.4,13.6-31.8,18.4-48.5c2.9-10.3,4.2-20.7,3.4-31.3c-0.5-6.2-2.3-11.5-10.8-10.2c-4.3,0.6-9,2.1-12.6,4.6
	c-15.1,10.1-28.6,22-41.1,35.2c-19.6,20.7-36.4,43.5-48.7,69.1c-6.3,13.1-11.2,26.9-15.8,40.7c-1.6,4.8-3.9,4.5-7.2,4.1
	c-2.9-0.4-5.8-1.7-8.7-1.6c-14.9,0.4-29.8-1.2-44.6,1.8c-22.5,4.5-44.2,11-63.2,24.3c-9.4,6.5-16.3,15.2-17.6,27.1
	c-1.2,10.8,1.9,20.8,6.5,30.5c12.2,25.4,32.6,43.1,55.3,58.7c1.4,0.9,3.4,1.2,5.1,1.2c40.7,0,81.3-0.1,122-0.1
	C751.1,547.8,753.1,547.8,755.7,547.8L755.7,547.8z"/>
<path d="M764.7,545.8c-2.6,0-4.6,0-6.5,0c-40.7,0.1-81.3,0.1-122,0.1c-1.7,0-3.8-0.3-5.1-1.2c-22.7-15.4-43.1-32.8-55.3-57.9
	c-4.6-9.5-7.7-19.5-6.5-30.1c1.3-11.7,8.2-20.3,17.6-26.7c19-13.1,40.7-19.5,63.2-24c14.9-3,29.8-1.3,44.6-1.7
	c2.9-0.1,5.8,1.2,8.7,1.6c3.3,0.5,5.6,0.7,7.2-4c4.5-13.6,9.5-27.3,15.8-40.2c12.3-25.3,29.1-47.8,48.7-68.2
	c12.5-13,26-24.8,41.1-34.7c3.6-2.4,8.2-3.9,12.6-4.5c8.5-1.2,10.3,3.9,10.8,10.1c0.8,10.4-0.5,20.8-3.4,30.9
	c-4.8,16.5-10.3,32.7-18.4,47.9c-5.3,10-11.2,19.8-17.1,29.5c-8.9,14.8-20.6,27.5-32.5,40c-5.8,6-11.3,12.2-16.8,18.5
	c-1.2,1.4-1.4,3.6-2.1,5.4c2.3,0.1,4.9,0.9,6.9,0.2c5.9-2.1,11.6-4.5,17.2-7.2c18.3-8.8,37.5-15.2,57.3-19.4
	c19.1-4,38.6-4.1,57.9-2.9c13,0.8,25.9,3.9,38.5,7c5.8,1.5,11.5,4.9,16.4,8.5c6.4,4.7,6.9,11.3,2,17.4c-6.2,7.8-13.8,14.1-22.7,18.4
	c-15.8,7.5-31.6,15.1-48,20.9c-13.1,4.6-27.1,7.9-41,9.5c-17.1,2-34.4,1.9-51.6,2.1c-6.5,0.1-13.2-0.7-19.6-2.1
	c-4.4-1-4.4,1.3-4.1,3.8c1.9,15.6,3.9,31.2,5.9,46.8C764.9,541.5,764.7,543.3,764.7,545.8L764.7,545.8z"/>
</svg>
